<svg width="881" height="881" viewBox="0 0 881 881" fill="none" xmlns="http://www.w3.org/2000/svg">
<g clip-path="url(#clip0_3_21)">
<rect width="881" height="881" fill="white"/>
<circle cx="441" cy="502" r="706" fill="url(#paint0_linear_3_21)"/>
<path fill-rule="evenodd" clip-rule="evenodd" d="M627.511 299.469C617.88 320.628 608.871 340.457 607.493 343.535C605.227 348.591 607.35 354.191 629.474 401.509C651.195 447.969 657.282 458.988 657.282 451.845C657.282 449.062 713.057 329.491 737.065 280.807C741.979 270.842 746 262.309 746 261.843C746 261.379 723.279 261 695.511 261H645.019L627.511 299.469Z" fill="#C9C4C3"/>
<path fill-rule="evenodd" clip-rule="evenodd" d="M305.98 339.274C219.837 397.478 205.408 520.458 275.788 596.597C316.726 640.886 375.557 659.513 436.106 647.361C489.868 636.571 535.791 607.904 567.985 565.039L577.411 552.489L552.916 501.653C539.442 473.693 527.958 451.279 527.393 451.844C526.829 452.41 524.161 458.309 521.464 464.954C505.283 504.828 470.679 540.003 434.931 552.911C417.798 559.099 388.633 559.519 369.381 553.856C333.615 543.336 303.996 512.626 289.827 471.372C284.662 456.339 283.907 450.91 284.088 430.215C284.409 393.757 294.921 364.932 317.1 339.696C322.06 334.053 324.817 329.467 323.228 329.503C321.64 329.54 313.878 333.936 305.98 339.274Z" fill="#C9C4C3"/>
<path fill-rule="evenodd" clip-rule="evenodd" d="M366.885 220.443C363.911 220.975 355.638 222.424 348.501 223.663C311.904 230.017 271.588 250.257 240.995 277.628C212.717 302.934 185.864 348.386 176.363 387.029C169.241 415.999 169.208 463.946 176.291 490.979C181.607 511.267 200.117 553.479 201.782 549.114C202.307 547.738 201.226 540.776 199.381 533.642C194.984 516.655 194.98 477.444 199.373 458.088C219.238 370.536 296.633 309.409 387.431 309.556C416.503 309.604 427.575 312.055 451.086 323.654C464.924 330.483 473.077 336.451 484.897 348.401C501.302 364.99 504.107 369.951 541.601 448.75C613.485 599.822 619.883 611.139 644.978 631.607C681.077 661.053 734.651 670.047 759.971 650.913C763.838 647.992 767 644.793 767 643.804C767 642.814 762.765 640.936 757.588 639.633C744.12 636.237 722.7 621.14 712.984 608.198C705.365 598.046 690.561 570.2 678.3 542.955C675.62 536.999 669.664 524.068 665.061 514.219C660.461 504.37 656.698 495.939 656.698 495.484C656.698 495.029 652.757 486.033 647.943 475.493C643.129 464.953 638.299 454.38 637.211 451.998C578.494 323.343 572.466 312.508 543.208 283.051C503.426 242.998 455.185 222.117 398.245 220.304C383.971 219.849 369.858 219.912 366.885 220.443Z" fill="white"/>
</g>
<defs>
<linearGradient id="paint0_linear_3_21" x1="159.03" y1="278.146" x2="772.476" y2="824.866" gradientUnits="userSpaceOnUse">
<stop stop-color="#F03A12"/>
<stop offset="1" stop-color="#BE2727"/>
</linearGradient>
<clipPath id="clip0_3_21">
<rect width="881" height="881" fill="white"/>
</clipPath>
</defs>
</svg>
