<svg width="881" height="881" viewBox="0 0 881 881" fill="none" xmlns="http://www.w3.org/2000/svg">
<rect width="881" height="881" fill="white"/>
<path fill-rule="evenodd" clip-rule="evenodd" d="M577.927 140.595C568.278 161.759 559.254 181.592 557.873 184.67C555.603 189.728 557.73 195.329 579.893 242.658C601.654 289.129 607.752 300.15 607.752 293.005C607.752 290.222 663.628 170.623 687.68 121.928C692.603 111.961 696.631 103.426 696.631 102.96C696.631 102.496 673.869 102.117 646.05 102.117H595.467L577.927 140.595Z" fill="#F03A12"/>
<path fill-rule="evenodd" clip-rule="evenodd" d="M255.814 180.408C169.515 238.626 155.06 361.635 225.567 437.792C266.579 482.09 325.517 500.722 386.176 488.567C440.035 477.774 486.042 449.101 518.294 406.226L527.737 393.673L503.197 342.825C489.699 314.859 478.194 292.439 477.628 293.005C477.063 293.571 474.39 299.472 471.689 306.118C455.478 346.001 420.811 381.184 384.999 394.095C367.834 400.285 338.617 400.705 319.33 395.041C283.499 384.518 253.826 353.801 239.632 312.537C234.457 297.501 233.7 292.071 233.883 271.371C234.203 234.904 244.735 206.073 266.954 180.831C271.923 175.186 274.685 170.599 273.094 170.636C271.502 170.673 263.726 175.069 255.814 180.408Z" fill="#F03A12"/>
<path fill-rule="evenodd" clip-rule="evenodd" d="M316.337 61.4431C313.357 61.9764 305.065 63.4266 297.911 64.6666C261.23 71.0269 220.821 91.287 190.157 118.686C161.813 144.016 134.898 189.514 125.375 228.196C118.237 257.194 118.204 305.189 125.304 332.249C130.632 352.557 149.184 394.812 150.853 390.441C151.38 389.065 150.296 382.095 148.447 374.955C144.04 357.951 144.035 318.701 148.438 299.325C168.349 211.686 245.923 150.498 336.931 150.645C366.071 150.693 377.168 153.147 400.734 164.758C414.603 171.593 422.776 177.567 434.623 189.529C451.065 206.134 453.877 211.101 491.458 289.978C563.508 441.2 569.921 452.529 595.073 473.017C631.256 502.492 684.954 511.495 710.333 492.343C714.209 489.418 717.378 486.216 717.378 485.226C717.378 484.235 713.133 482.355 707.944 481.05C694.445 477.651 672.975 462.54 663.237 449.585C655.6 439.423 640.762 411.549 628.473 384.276C625.787 378.315 619.817 365.371 615.204 355.512C610.593 345.653 606.821 337.214 606.821 336.758C606.821 336.303 602.871 327.298 598.046 316.748C593.22 306.197 588.379 295.614 587.289 293.229C528.436 164.445 522.394 153.6 493.068 124.114C453.194 84.0206 404.842 63.1188 347.77 61.3044C333.463 60.8491 319.318 60.912 316.337 61.4431Z" fill="#BE2727"/>
<path d="M120 786.646C120 782.284 120.77 777.991 122.309 773.765C123.919 769.472 126.228 765.587 129.237 762.112C132.246 758.568 135.92 755.74 140.259 753.627C144.667 751.514 149.671 750.458 155.269 750.458C161.917 750.458 167.585 751.957 172.273 754.956C176.962 757.886 180.461 761.669 182.77 766.303L178.361 768.756C176.612 765.417 174.443 762.759 171.854 760.783C169.334 758.806 166.605 757.409 163.666 756.591C160.727 755.706 157.788 755.263 154.849 755.263C150.16 755.263 145.962 756.183 142.253 758.023C138.614 759.863 135.535 762.316 133.016 765.383C130.497 768.45 128.572 771.857 127.243 775.605C125.983 779.354 125.353 783.136 125.353 786.952C125.353 791.246 126.123 795.335 127.663 799.22C129.202 803.036 131.301 806.444 133.961 809.442C136.69 812.441 139.839 814.826 143.408 816.598C147.046 818.37 150.965 819.256 155.164 819.256C158.173 819.256 161.217 818.779 164.296 817.825C167.445 816.802 170.384 815.269 173.113 813.224C175.842 811.112 178.047 808.386 179.726 805.046L184.345 807.193C182.735 810.805 180.321 813.872 177.102 816.393C173.883 818.915 170.314 820.823 166.395 822.118C162.476 823.413 158.593 824.06 154.744 824.06C149.706 824.06 145.052 823.004 140.783 820.891C136.515 818.711 132.806 815.848 129.657 812.304C126.578 808.692 124.199 804.672 122.519 800.242C120.84 795.744 120 791.212 120 786.646Z" fill="black"/>
<path d="M226.603 823.958C221.425 823.958 216.702 822.936 212.433 820.891C208.164 818.779 204.49 815.985 201.411 812.509C198.332 809.033 195.953 805.115 194.274 800.753C192.594 796.323 191.755 791.791 191.755 787.157C191.755 782.318 192.629 777.718 194.379 773.356C196.128 768.927 198.577 765.008 201.726 761.601C204.945 758.125 208.654 755.399 212.853 753.422C217.121 751.378 221.74 750.356 226.708 750.356C231.957 750.356 236.68 751.412 240.879 753.525C245.148 755.637 248.821 758.466 251.9 762.009C254.979 765.553 257.359 769.506 259.038 773.868C260.718 778.229 261.557 782.659 261.557 787.157C261.557 792.064 260.683 796.732 258.933 801.162C257.184 805.523 254.7 809.442 251.481 812.918C248.332 816.325 244.623 819.017 240.354 820.994C236.155 822.97 231.572 823.958 226.603 823.958ZM197.108 787.157C197.108 791.314 197.843 795.301 199.312 799.117C200.782 802.934 202.811 806.341 205.4 809.34C208.059 812.339 211.173 814.724 214.742 816.496C218.381 818.268 222.37 819.154 226.708 819.154C231.117 819.154 235.141 818.234 238.78 816.393C242.418 814.553 245.532 812.1 248.122 809.033C250.711 805.966 252.67 802.559 254 798.811C255.399 794.994 256.099 791.11 256.099 787.157C256.099 783 255.364 779.013 253.895 775.197C252.495 771.38 250.466 767.973 247.807 764.974C245.148 761.975 241.999 759.59 238.36 757.818C234.791 756.046 230.907 755.16 226.708 755.16C222.23 755.16 218.171 756.08 214.532 757.92C210.893 759.76 207.779 762.214 205.19 765.281C202.671 768.347 200.677 771.789 199.207 775.605C197.808 779.354 197.108 783.204 197.108 787.157Z" fill="black"/>
<path d="M343.424 823.447V760.987L314.138 809.851H310.569L281.284 760.987V823.447H275.93V750.867H281.284L312.354 802.797L343.424 750.867H348.777V823.447H343.424Z" fill="black"/>
<path d="M435.782 823.447V760.987L406.497 809.851H402.928L373.642 760.987V823.447H368.289V750.867H373.642L404.712 802.797L435.782 750.867H441.136V823.447H435.782Z" fill="black"/>
<path d="M490.668 823.958C484.719 823.958 479.751 822.936 475.762 820.891C471.774 818.847 468.59 816.087 466.21 812.611C463.831 809.067 462.117 805.115 461.067 800.753C460.017 796.391 459.492 791.927 459.492 787.361V750.867H464.846V787.361C464.846 791.314 465.266 795.199 466.105 799.015C466.945 802.832 468.31 806.273 470.199 809.34C472.158 812.339 474.783 814.724 478.072 816.496C481.431 818.268 485.594 819.154 490.563 819.154C495.601 819.154 499.765 818.234 503.054 816.393C506.413 814.553 509.037 812.134 510.926 809.135C512.886 806.069 514.25 802.661 515.02 798.913C515.86 795.096 516.279 791.246 516.279 787.361V750.867H521.633V787.361C521.633 792.2 521.073 796.834 519.953 801.264C518.904 805.626 517.154 809.51 514.705 812.918C512.256 816.325 509.072 819.017 505.153 820.994C501.234 822.97 496.406 823.958 490.668 823.958Z" fill="black"/>
<path d="M545.34 760.578V823.447H539.987V750.867H544.396L596.354 814.758V750.867H601.708V823.447H596.459L545.34 760.578Z" fill="black"/>
<path d="M621.172 823.447V750.867H626.526V823.447H621.172Z" fill="black"/>
<path d="M698.145 755.569H670.853V823.447H665.5V755.569H638.209V750.867H698.145V755.569Z" fill="black"/>
<path d="M707.848 750.867L733.88 791.042L760.017 750.867H766L736.609 796.051V823.447H731.256V795.846L701.97 750.867H707.848Z" fill="black"/>
<path d="M168.092 555.255H202.836L250.731 693.993H217.754L206.958 662.924H163.577L152.977 693.993H120L168.092 555.255ZM201.658 640.843L185.366 587.497L168.681 640.843H201.658Z" fill="#BE2727"/>
<path d="M264.456 693.993V555.255H296.648V665.855H364.173V693.993H264.456Z" fill="#BE2727"/>
<path d="M379.28 693.993V555.255H438.757C445.431 555.255 451.516 556.623 457.012 559.359C462.639 561.964 467.481 565.546 471.538 570.106C475.594 574.535 478.735 579.551 480.96 585.152C483.184 590.754 484.297 596.486 484.297 602.348C484.297 610.294 482.399 617.85 478.604 625.015C474.94 632.18 469.771 638.042 463.097 642.602C456.554 647.031 448.768 649.245 439.738 649.245H411.472V693.993H379.28ZM411.472 621.302H437.775C440.262 621.302 442.552 620.586 444.645 619.153C446.739 617.72 448.44 615.57 449.749 612.704C451.058 609.838 451.712 606.321 451.712 602.152C451.712 597.854 450.927 594.336 449.356 591.601C447.917 588.735 446.02 586.65 443.664 585.348C441.439 584.045 439.084 583.393 436.597 583.393H411.472V621.302Z" fill="#BE2727"/>
<path d="M621.515 555.255V693.993H589.323V637.13H533.772V693.993H501.58V555.255H533.772V608.992H589.323V555.255H621.515Z" fill="#BE2727"/>
<path d="M683.361 555.255H718.104L766 693.993H733.023L722.227 662.924H678.846L668.246 693.993H635.269L683.361 555.255ZM716.927 640.843L700.634 587.497L683.95 640.843H716.927Z" fill="#BE2727"/>
</svg>
