<svg width="1889" height="657" viewBox="0 0 1889 657" fill="none" xmlns="http://www.w3.org/2000/svg">
<rect width="1889" height="657" fill="white"/>
<path fill-rule="evenodd" clip-rule="evenodd" d="M576.011 155.776C564.886 180.18 554.48 203.048 552.888 206.597C550.271 212.429 552.723 218.888 578.278 273.461C603.369 327.044 610.4 339.751 610.4 331.513C610.4 328.303 674.829 190.4 702.561 134.253C708.238 122.76 712.882 112.919 712.882 112.382C712.882 111.847 686.637 111.409 654.56 111.409H596.235L576.011 155.776Z" fill="#F03A12"/>
<path fill-rule="evenodd" clip-rule="evenodd" d="M204.6 201.683C105.093 268.811 88.4255 410.646 169.724 498.458C217.013 549.536 284.971 571.02 354.913 557.005C417.015 544.56 470.063 511.498 507.251 462.062L518.139 447.587L489.844 388.957C474.28 356.711 461.014 330.86 460.362 331.513C459.71 332.165 456.628 338.969 453.513 346.633C434.822 392.619 394.849 433.187 353.556 448.074C333.764 455.211 300.075 455.696 277.837 449.164C236.522 437.031 202.308 401.613 185.941 354.034C179.974 336.697 179.102 330.435 179.312 306.567C179.682 264.519 191.825 231.275 217.445 202.171C223.174 195.662 226.359 190.373 224.524 190.415C222.689 190.458 213.723 195.527 204.6 201.683Z" fill="#F03A12"/>
<path fill-rule="evenodd" clip-rule="evenodd" d="M274.386 64.5109C270.949 65.1258 261.389 66.798 253.14 68.2278C210.845 75.5615 164.251 98.9223 128.895 130.514C96.2128 159.722 65.1783 212.182 54.1977 256.784C45.9667 290.221 45.9292 345.561 54.1153 376.763C60.2592 400.179 81.6504 448.9 83.575 443.861C84.1824 442.274 82.9327 434.238 80.8005 426.004C75.7189 406.398 75.7139 361.141 80.7905 338.8C103.749 237.748 193.196 167.195 298.132 167.365C331.731 167.42 344.526 170.25 371.699 183.637C387.691 191.518 397.115 198.407 410.775 212.2C429.734 231.346 432.976 237.073 476.308 328.022C559.386 502.388 566.779 515.451 595.782 539.074C637.502 573.061 699.419 583.442 728.681 561.358C733.15 557.986 736.804 554.294 736.804 553.152C736.804 552.01 731.91 549.843 725.926 548.338C710.362 544.418 685.606 526.994 674.378 512.057C665.572 500.339 648.463 468.199 634.293 436.753C631.196 429.879 624.312 414.954 618.993 403.586C613.676 392.218 609.327 382.487 609.327 381.962C609.327 381.437 604.773 371.054 599.209 358.889C593.645 346.724 588.063 334.521 586.806 331.771C518.945 183.277 511.979 170.772 478.165 136.773C432.188 90.5438 376.436 66.4431 310.63 64.3509C294.133 63.826 277.823 63.8985 274.386 64.5109Z" fill="#BE2727"/>
<path d="M860.013 131.488H917.551L996.868 373.945H942.256L924.377 319.648H852.536L834.982 373.945H780.37L860.013 131.488ZM915.6 281.06L888.619 187.834L860.988 281.06H915.6Z" fill="#BE2727"/>
<path d="M1019.6 373.945V131.488H1072.91V324.771H1184.73V373.945H1019.6Z" fill="#BE2727"/>
<path d="M1209.75 373.945V131.488H1308.25C1319.3 131.488 1329.38 133.878 1338.48 138.659C1347.8 143.212 1355.82 149.473 1362.54 157.441C1369.25 165.182 1374.45 173.946 1378.14 183.736C1381.82 193.525 1383.67 203.542 1383.67 213.787C1383.67 227.674 1380.52 240.878 1374.24 253.4C1368.17 265.921 1359.61 276.165 1348.56 284.134C1337.72 291.874 1324.83 295.744 1309.87 295.744H1263.06V373.945H1209.75ZM1263.06 246.911H1306.62C1310.74 246.911 1314.53 245.659 1318 243.155C1321.47 240.651 1324.29 236.894 1326.45 231.886C1328.62 226.877 1329.7 220.73 1329.7 213.445C1329.7 205.933 1328.4 199.786 1325.8 195.005C1323.42 189.996 1320.28 186.354 1316.38 184.077C1312.69 181.801 1308.79 180.662 1304.67 180.662H1263.06V246.911Z" fill="#BE2727"/>
<path d="M1610.91 131.488V373.945H1557.59V274.572H1465.6V373.945H1412.29V131.488H1465.6V225.397H1557.59V131.488H1610.91Z" fill="#BE2727"/>
<path d="M1713.33 131.488H1770.86L1850.18 373.945H1795.57L1777.69 319.648H1705.85L1688.3 373.945H1633.68L1713.33 131.488ZM1768.91 281.06L1741.93 187.834L1714.3 281.06H1768.91Z" fill="#BE2727"/>
<path d="M780.37 496.701C780.37 489.157 781.645 481.731 784.195 474.423C786.86 466.997 790.684 460.279 795.667 454.267C800.651 448.138 806.735 443.246 813.92 439.592C821.22 435.938 829.506 434.111 838.777 434.111C849.787 434.111 859.173 436.704 866.938 441.891C874.702 446.959 880.497 453.501 884.321 461.516L877.02 465.76C874.123 459.984 870.53 455.387 866.243 451.969C862.071 448.55 857.551 446.134 852.684 444.72C847.816 443.187 842.949 442.421 838.082 442.421C830.318 442.421 823.364 444.012 817.222 447.195C811.196 450.377 806.097 454.621 801.925 459.925C797.753 465.229 794.566 471.123 792.365 477.606C790.279 484.089 789.236 490.63 789.236 497.231C789.236 504.657 790.51 511.729 793.06 518.448C795.609 525.049 799.086 530.942 803.49 536.129C808.009 541.315 813.224 545.44 819.134 548.505C825.161 551.57 831.65 553.102 838.603 553.102C843.587 553.102 848.628 552.277 853.727 550.627C858.942 548.859 863.809 546.207 868.328 542.67C872.848 539.016 876.499 534.302 879.28 528.526L886.928 532.239C884.263 538.486 880.265 543.79 874.934 548.151C869.603 552.513 863.693 555.813 857.203 558.053C850.714 560.292 844.282 561.412 837.908 561.412C829.564 561.412 821.858 559.585 814.789 555.931C807.72 552.159 801.578 547.208 796.363 541.079C791.264 534.832 787.324 527.878 784.542 520.216C781.761 512.437 780.37 504.598 780.37 496.701Z" fill="black"/>
<path d="M956.911 561.235C948.336 561.235 940.513 559.467 933.444 555.931C926.375 552.277 920.291 547.444 915.192 541.433C910.093 535.421 906.153 528.644 903.372 521.1C900.59 513.438 899.2 505.6 899.2 497.585C899.2 489.216 900.648 481.26 903.545 473.716C906.443 466.054 910.499 459.277 915.714 453.383C921.044 447.372 927.186 442.657 934.14 439.239C941.209 435.703 948.857 433.934 957.085 433.934C965.777 433.934 973.599 435.761 980.552 439.415C987.621 443.069 993.705 447.961 998.804 454.09C1003.9 460.22 1007.84 467.056 1010.62 474.6C1013.41 482.144 1014.8 489.805 1014.8 497.585C1014.8 506.071 1013.35 514.146 1010.45 521.807C1007.55 529.351 1003.44 536.129 998.109 542.14C992.894 548.034 986.752 552.689 979.683 556.108C972.73 559.526 965.139 561.235 956.911 561.235ZM908.065 497.585C908.065 504.775 909.282 511.67 911.715 518.271C914.149 524.872 917.51 530.765 921.798 535.952C926.201 541.138 931.358 545.264 937.269 548.328C943.295 551.393 949.9 552.925 957.085 552.925C964.386 552.925 971.05 551.334 977.076 548.151C983.102 544.969 988.259 540.726 992.547 535.421C996.834 530.117 1000.08 524.224 1002.28 517.741C1004.6 511.14 1005.76 504.421 1005.76 497.585C1005.76 490.395 1004.54 483.499 1002.11 476.898C999.79 470.298 996.429 464.404 992.025 459.218C987.621 454.031 982.406 449.906 976.38 446.841C970.47 443.777 964.038 442.244 957.085 442.244C949.668 442.244 942.947 443.836 936.921 447.018C930.895 450.201 925.738 454.444 921.45 459.748C917.278 465.052 913.975 471.005 911.542 477.606C909.224 484.089 908.065 490.748 908.065 497.585Z" fill="black"/>
<path d="M1150.37 560.351V452.322L1101.87 536.836H1095.96L1047.46 452.322V560.351H1038.6V434.819H1047.46L1098.92 524.636L1150.37 434.819H1159.24V560.351H1150.37Z" fill="black"/>
<path d="M1303.32 560.351V452.322L1254.82 536.836H1248.91L1200.42 452.322V560.351H1191.55V434.819H1200.42L1251.87 524.636L1303.32 434.819H1312.19V560.351H1303.32Z" fill="black"/>
<path d="M1394.22 561.235C1384.37 561.235 1376.14 559.467 1369.53 555.931C1362.93 552.395 1357.65 547.621 1353.71 541.61C1349.77 535.48 1346.93 528.644 1345.2 521.1C1343.46 513.556 1342.59 505.836 1342.59 497.938V434.819H1351.45V497.938C1351.45 504.775 1352.15 511.494 1353.54 518.094C1354.93 524.695 1357.19 530.648 1360.32 535.952C1363.56 541.138 1367.91 545.264 1373.36 548.328C1378.92 551.393 1385.81 552.925 1394.04 552.925C1402.39 552.925 1409.28 551.334 1414.73 548.151C1420.29 544.969 1424.64 540.784 1427.76 535.598C1431.01 530.294 1433.27 524.4 1434.54 517.918C1435.93 511.317 1436.63 504.657 1436.63 497.938V434.819H1445.5V497.938C1445.5 506.307 1444.57 514.322 1442.71 521.984C1440.98 529.528 1438.08 536.246 1434.02 542.14C1429.97 548.034 1424.69 552.689 1418.2 556.108C1411.71 559.526 1403.72 561.235 1394.22 561.235Z" fill="black"/>
<path d="M1484.76 451.615V560.351H1475.89V434.819H1483.19L1569.24 545.322V434.819H1578.1V560.351H1569.41L1484.76 451.615Z" fill="black"/>
<path d="M1610.34 560.351V434.819H1619.2V560.351H1610.34Z" fill="black"/>
<path d="M1737.81 442.952H1692.61V560.351H1683.75V442.952H1638.55V434.819H1737.81V442.952Z" fill="black"/>
<path d="M1753.88 434.819L1796.99 504.303L1840.27 434.819H1850.18L1801.51 512.967V560.351H1792.64V512.613L1744.14 434.819H1753.88Z" fill="black"/>
</svg>
